<?xml version="1.0" encoding="UTF-8" standalone="no"?>
<!DOCTYPE svg PUBLIC "-//W3C//DTD SVG 1.1//EN"
 "http://www.w3.org/Graphics/SVG/1.1/DTD/svg11.dtd">
<!-- Generated by graphviz version 14.1.2 (0)
 -->
<!-- Pages: 1 -->
<svg width="789pt" height="297pt"
 viewBox="0.00 0.00 789.00 297.00" xmlns="http://www.w3.org/2000/svg" xmlns:xlink="http://www.w3.org/1999/xlink">
<g id="graph0" class="graph" transform="scale(1 1) rotate(0) translate(4 293.25)">
<polygon fill="white" stroke="none" points="-4,4 -4,-293.25 785.25,-293.25 785.25,4 -4,4"/>
<!-- (0, 0) -->
<g id="node1" class="node">
<title>(0, 0)</title>
<polygon fill="#eaeaea" stroke="none" points="8,-74 8,-98.25 180.75,-98.25 180.75,-74 8,-74"/>
<polygon fill="none" stroke="black" points="8,-74 8,-98.25 180.75,-98.25 180.75,-74 8,-74"/>
<text xml:space="preserve" text-anchor="start" x="80.88" y="-82.85" font-family="Helvetica,Arial,sans-serif" font-weight="bold" font-size="12.00">(0, 0)</text>
<polygon fill="#ffffff" stroke="none" points="8,-52 8,-74 180.75,-74 180.75,-52 8,-52"/>
<polygon fill="none" stroke="black" points="8,-52 8,-74 180.75,-74 180.75,-52 8,-52"/>
<text xml:space="preserve" text-anchor="start" x="13" y="-59.5" font-family="Helvetica,Arial,sans-serif" font-size="10.00">boundD, r_&#45;1, boundL, a1, r_0, a3, a0</text>
</g>
<!-- (0, 0)&#45;&gt;(0, 0) -->
<g id="edge2" class="edge">
<title>(0, 0)&#45;&gt;(0, 0)</title>
<path fill="none" stroke="#4a4a4a" d="M60,-102.11C46.71,-123.4 58.17,-145.25 94.38,-145.25 124.93,-145.25 137.86,-129.7 133.16,-112.05"/>
<polygon fill="#4a4a4a" stroke="#4a4a4a" points="129.24,-103.23 137.42,-110.53 130.78,-106.68 133.3,-112.36 133.3,-112.36 133.3,-112.36 130.78,-106.68 129.19,-114.19 129.24,-103.23"/>
</g>
<!-- (1, 0) -->
<g id="node2" class="node">
<title>(1, 0)</title>
<polygon fill="#eaeaea" stroke="none" points="239.75,-169 239.75,-193.25 372.75,-193.25 372.75,-169 239.75,-169"/>
<polygon fill="none" stroke="black" points="239.75,-169 239.75,-193.25 372.75,-193.25 372.75,-169 239.75,-169"/>
<text xml:space="preserve" text-anchor="start" x="292.75" y="-177.85" font-family="Helvetica,Arial,sans-serif" font-weight="bold" font-size="12.00">(1, 0)</text>
<polygon fill="#ffffff" stroke="none" points="239.75,-147 239.75,-169 372.75,-169 372.75,-147 239.75,-147"/>
<polygon fill="none" stroke="black" points="239.75,-147 239.75,-169 372.75,-169 372.75,-147 239.75,-147"/>
<text xml:space="preserve" text-anchor="start" x="244.75" y="-154.5" font-family="Helvetica,Arial,sans-serif" font-size="10.00">a2, r_&#45;1, boundL, r_0, a3, a0</text>
</g>
<!-- (0, 0)&#45;&gt;(1, 0) -->
<g id="edge1" class="edge">
<title>(0, 0)&#45;&gt;(1, 0)</title>
<path fill="none" stroke="#4a4a4a" d="M155.24,-102.22C180.26,-113.55 209.52,-126.79 235.51,-138.56"/>
<polygon fill="#4a4a4a" stroke="#4a4a4a" points="244.56,-142.65 233.6,-142.63 241.12,-141.1 235.45,-138.53 235.45,-138.53 235.45,-138.53 241.12,-141.1 237.31,-134.43 244.56,-142.65"/>
</g>
<!-- (1, 0)&#45;&gt;(1, 0) -->
<g id="edge3" class="edge">
<title>(1, 0)&#45;&gt;(1, 0)</title>
<path fill="none" stroke="#4a4a4a" d="M275.1,-197.11C263.06,-218.4 273.44,-240.25 306.25,-240.25 333.68,-240.25 345.43,-224.98 341.52,-207.54"/>
<polygon fill="#4a4a4a" stroke="#4a4a4a" points="337.84,-198.25 345.7,-205.89 339.23,-201.76 341.52,-207.55 341.52,-207.55 341.52,-207.55 339.23,-201.76 337.33,-209.2 337.84,-198.25"/>
</g>
<!-- (1, 1) -->
<g id="node3" class="node">
<title>(1, 1)</title>
<polygon fill="#eaeaea" stroke="none" points="470,-121 470,-145.25 526.5,-145.25 526.5,-121 470,-121"/>
<polygon fill="none" stroke="black" points="470,-121 470,-145.25 526.5,-145.25 526.5,-121 470,-121"/>
<text xml:space="preserve" text-anchor="start" x="484.75" y="-129.85" font-family="Helvetica,Arial,sans-serif" font-weight="bold" font-size="12.00">(1, 1)</text>
<polygon fill="#ffffff" stroke="none" points="470,-99 470,-121 526.5,-121 526.5,-99 470,-99"/>
<polygon fill="none" stroke="black" points="470,-99 470,-121 526.5,-121 526.5,-99 470,-99"/>
<text xml:space="preserve" text-anchor="start" x="475" y="-106.5" font-family="Helvetica,Arial,sans-serif" font-size="10.00">a2, a1, r_0</text>
</g>
<!-- (1, 0)&#45;&gt;(1, 1) -->
<g id="edge4" class="edge">
<title>(1, 0)&#45;&gt;(1, 1)</title>
<path fill="none" stroke="#4a4a4a" d="M380.71,-151.57C404.54,-145.55 430.28,-139.04 451.5,-133.68"/>
<polygon fill="#4a4a4a" stroke="#4a4a4a" points="460.96,-131.29 452.37,-138.11 457.29,-132.22 451.26,-133.74 451.26,-133.74 451.26,-133.74 457.29,-132.22 450.16,-129.38 460.96,-131.29"/>
</g>
<!-- (2, 0) -->
<g id="node5" class="node">
<title>(2, 0)</title>
<polygon fill="#eaeaea" stroke="none" points="431.75,-218 431.75,-242.25 564.75,-242.25 564.75,-218 431.75,-218"/>
<polygon fill="none" stroke="black" points="431.75,-218 431.75,-242.25 564.75,-242.25 564.75,-218 431.75,-218"/>
<text xml:space="preserve" text-anchor="start" x="484.75" y="-226.85" font-family="Helvetica,Arial,sans-serif" font-weight="bold" font-size="12.00">(2, 0)</text>
<polygon fill="#ffffff" stroke="none" points="431.75,-196 431.75,-218 564.75,-218 564.75,-196 431.75,-196"/>
<polygon fill="none" stroke="black" points="431.75,-196 431.75,-218 564.75,-218 564.75,-196 431.75,-196"/>
<text xml:space="preserve" text-anchor="start" x="436.75" y="-203.5" font-family="Helvetica,Arial,sans-serif" font-size="10.00">a2, r_&#45;1, boundL, a1, r_0, a3</text>
</g>
<!-- (1, 0)&#45;&gt;(2, 0) -->
<g id="edge5" class="edge">
<title>(1, 0)&#45;&gt;(2, 0)</title>
<path fill="none" stroke="#4a4a4a" d="M380.71,-173.32C399.39,-177.48 419.24,-182.81 437.17,-188.52"/>
<polygon fill="#4a4a4a" stroke="#4a4a4a" points="446.61,-191.63 435.7,-192.77 443.02,-190.44 437.11,-188.5 437.11,-188.5 437.11,-188.5 443.02,-190.44 438.52,-184.22 446.61,-191.63"/>
</g>
<!-- (0, 1) -->
<g id="node4" class="node">
<title>(0, 1)</title>
<polygon fill="#eaeaea" stroke="none" points="623.75,-26 623.75,-50.25 663.75,-50.25 663.75,-26 623.75,-26"/>
<polygon fill="none" stroke="black" points="623.75,-26 623.75,-50.25 663.75,-50.25 663.75,-26 623.75,-26"/>
<text xml:space="preserve" text-anchor="start" x="630.25" y="-34.85" font-family="Helvetica,Arial,sans-serif" font-weight="bold" font-size="12.00">(0, 1)</text>
<polygon fill="#ffffff" stroke="none" points="623.75,-4 623.75,-26 663.75,-26 663.75,-4 623.75,-4"/>
<polygon fill="none" stroke="black" points="623.75,-4 623.75,-26 663.75,-26 663.75,-4 623.75,-4"/>
<text xml:space="preserve" text-anchor="start" x="628.75" y="-11.5" font-family="Helvetica,Arial,sans-serif" font-size="10.00">a3, r_0</text>
</g>
<!-- (1, 1)&#45;&gt;(0, 1) -->
<g id="edge6" class="edge">
<title>(1, 1)&#45;&gt;(0, 1)</title>
<path fill="none" stroke="#4a4a4a" d="M534.35,-98.89C556.43,-84.27 584.82,-65.48 607.01,-50.78"/>
<polygon fill="#4a4a4a" stroke="#4a4a4a" points="615.09,-45.44 609.24,-54.71 611.94,-47.52 606.75,-50.96 606.75,-50.96 606.75,-50.96 611.94,-47.52 604.27,-47.2 615.09,-45.44"/>
</g>
<!-- (1, 2) -->
<g id="node8" class="node">
<title>(1, 2)</title>
<polygon fill="#eaeaea" stroke="none" points="623.75,-123 623.75,-147.25 663.75,-147.25 663.75,-123 623.75,-123"/>
<polygon fill="none" stroke="black" points="623.75,-123 623.75,-147.25 663.75,-147.25 663.75,-123 623.75,-123"/>
<text xml:space="preserve" text-anchor="start" x="630.25" y="-131.85" font-family="Helvetica,Arial,sans-serif" font-weight="bold" font-size="12.00">(1, 2)</text>
<polygon fill="#ffffff" stroke="none" points="623.75,-101 623.75,-123 663.75,-123 663.75,-101 623.75,-101"/>
<polygon fill="none" stroke="black" points="623.75,-101 623.75,-123 663.75,-123 663.75,-101 623.75,-101"/>
<text xml:space="preserve" text-anchor="start" x="628.75" y="-108.5" font-family="Helvetica,Arial,sans-serif" font-size="10.00">a0, r_0</text>
</g>
<!-- (1, 1)&#45;&gt;(1, 2) -->
<g id="edge7" class="edge">
<title>(1, 1)&#45;&gt;(1, 2)</title>
<path fill="none" stroke="#4a4a4a" d="M534.35,-122.61C555.74,-122.91 583.05,-123.29 604.91,-123.6"/>
<polygon fill="#4a4a4a" stroke="#4a4a4a" points="614.89,-123.74 604.83,-128.1 611.11,-123.68 604.89,-123.6 604.89,-123.6 604.89,-123.6 611.11,-123.68 604.95,-119.1 614.89,-123.74"/>
</g>
<!-- (0, 1)&#45;&gt;(0, 0) -->
<g id="edge8" class="edge">
<title>(0, 1)&#45;&gt;(0, 0)</title>
<path fill="none" stroke="#4a4a4a" d="M615.89,-29.48C541.36,-36.02 328.91,-54.65 199.63,-65.98"/>
<polygon fill="#4a4a4a" stroke="#4a4a4a" points="189.75,-66.85 199.32,-61.49 193.52,-66.52 199.72,-65.98 199.72,-65.98 199.72,-65.98 193.52,-66.52 200.11,-70.46 189.75,-66.85"/>
</g>
<!-- (2, 0)&#45;&gt;(1, 0) -->
<g id="edge9" class="edge">
<title>(2, 0)&#45;&gt;(1, 0)</title>
<path fill="none" stroke="#4a4a4a" d="M424.09,-216C405.32,-211.83 385.35,-206.47 367.33,-200.73"/>
<polygon fill="#4a4a4a" stroke="#4a4a4a" points="357.83,-197.6 368.74,-196.46 361.42,-198.79 367.33,-200.73 367.33,-200.73 367.33,-200.73 361.42,-198.79 365.92,-205.01 357.83,-197.6"/>
</g>
<!-- (2, 0)&#45;&gt;(2, 0) -->
<g id="edge10" class="edge">
<title>(2, 0)&#45;&gt;(2, 0)</title>
<path fill="none" stroke="#4a4a4a" d="M474.65,-246.11C465.52,-267.4 473.38,-289.25 498.25,-289.25 519.04,-289.25 527.94,-273.98 524.97,-256.54"/>
<polygon fill="#4a4a4a" stroke="#4a4a4a" points="522.2,-247.28 529.38,-255.57 523.29,-250.9 525.07,-256.86 525.07,-256.86 525.07,-256.86 523.29,-250.9 520.76,-258.15 522.2,-247.28"/>
</g>
<!-- (2, 1) -->
<g id="node6" class="node">
<title>(2, 1)</title>
<polygon fill="#eaeaea" stroke="none" points="623.75,-220 623.75,-244.25 663.75,-244.25 663.75,-220 623.75,-220"/>
<polygon fill="none" stroke="black" points="623.75,-220 623.75,-244.25 663.75,-244.25 663.75,-220 623.75,-220"/>
<text xml:space="preserve" text-anchor="start" x="630.25" y="-228.85" font-family="Helvetica,Arial,sans-serif" font-weight="bold" font-size="12.00">(2, 1)</text>
<polygon fill="#ffffff" stroke="none" points="623.75,-198 623.75,-220 663.75,-220 663.75,-198 623.75,-198"/>
<polygon fill="none" stroke="black" points="623.75,-198 623.75,-220 663.75,-220 663.75,-198 623.75,-198"/>
<text xml:space="preserve" text-anchor="start" x="628.75" y="-205.5" font-family="Helvetica,Arial,sans-serif" font-size="10.00">a2, r_0</text>
</g>
<!-- (2, 0)&#45;&gt;(2, 1) -->
<g id="edge11" class="edge">
<title>(2, 0)&#45;&gt;(2, 1)</title>
<path fill="none" stroke="#4a4a4a" d="M572.68,-220.15C583.78,-220.3 594.83,-220.46 604.76,-220.6"/>
<polygon fill="#4a4a4a" stroke="#4a4a4a" points="614.62,-220.73 604.56,-225.09 610.84,-220.68 604.63,-220.59 604.63,-220.59 604.63,-220.59 610.84,-220.68 604.69,-216.09 614.62,-220.73"/>
</g>
<!-- (2, 2) -->
<g id="node7" class="node">
<title>(2, 2)</title>
<polygon fill="#eaeaea" stroke="none" points="722.75,-171 722.75,-195.25 773.25,-195.25 773.25,-171 722.75,-171"/>
<polygon fill="none" stroke="black" points="722.75,-171 722.75,-195.25 773.25,-195.25 773.25,-171 722.75,-171"/>
<text xml:space="preserve" text-anchor="start" x="734.5" y="-179.85" font-family="Helvetica,Arial,sans-serif" font-weight="bold" font-size="12.00">(2, 2)</text>
<polygon fill="#ffffff" stroke="none" points="722.75,-149 722.75,-171 773.25,-171 773.25,-149 722.75,-149"/>
<polygon fill="none" stroke="black" points="722.75,-149 722.75,-171 773.25,-171 773.25,-149 722.75,-149"/>
<text xml:space="preserve" text-anchor="start" x="727.75" y="-156.5" font-family="Helvetica,Arial,sans-serif" font-size="10.00">TS, r_&#45;10</text>
</g>
<!-- (2, 1)&#45;&gt;(2, 2) -->
<g id="edge12" class="edge">
<title>(2, 1)&#45;&gt;(2, 2)</title>
<path fill="none" stroke="#4a4a4a" d="M671.61,-208.25C681.76,-203.39 693.57,-197.73 704.79,-192.35"/>
<polygon fill="#4a4a4a" stroke="#4a4a4a" points="713.76,-188.05 706.69,-196.43 710.35,-189.69 704.74,-192.38 704.74,-192.38 704.74,-192.38 710.35,-189.69 702.8,-188.32 713.76,-188.05"/>
</g>
<!-- (1, 2)&#45;&gt;(2, 2) -->
<g id="edge13" class="edge">
<title>(1, 2)&#45;&gt;(2, 2)</title>
<path fill="none" stroke="#4a4a4a" d="M671.61,-136.74C681.76,-141.5 693.57,-147.04 704.79,-152.31"/>
<polygon fill="#4a4a4a" stroke="#4a4a4a" points="713.75,-156.52 702.79,-156.34 710.33,-154.91 704.7,-152.27 704.7,-152.27 704.7,-152.27 710.33,-154.91 706.62,-148.2 713.75,-156.52"/>
</g>
</g>
</svg>
